<svg xmlns="http://www.w3.org/2000/svg" viewBox="0 0 32 32" fill="none">
  <circle cx="16" cy="16" r="16" fill="#2d6a4f"/>
  <path d="M16 6c-5.5 0-10 4.5-10 10 0 4.8 3.4 8.8 8 9.8V20h4v5.8c4.6-1 8-5 8-9.8 0-5.5-4.5-10-10-10z" fill="#52b788"/>
  <path d="M16 10c-3.3 0-6 2.7-6 6 0 3.3 2.7 6 6 6s6-2.7 6-6c0-3.3-2.7-6-6-6zm0 3c1.7 0 3 1.3 3 3s-1.3 3-3 3-3-1.3-3-3 1.3-3 3-3z" fill="#2d6a4f"/>
  <path d="M16 8v14" stroke="#2d6a4f" stroke-width="1.5" stroke-linecap="round"/>
  <path d="M16 12l-3 3M16 12l3 3" stroke="#2d6a4f" stroke-width="1.2" stroke-linecap="round"/>
  <path d="M16 17l-2.5 2.5M16 17l2.5 2.5" stroke="#2d6a4f" stroke-width="1.2" stroke-linecap="round"/>
</svg>
